# xmcd CD database file
#
# Track frame offsets:
#	150
#	21982
#	45309
#	71247
#	89459
#	107242
#	130335
#	157758
#	183612
#	208367
#	231665
#
# Disc length: 3359 seconds
#
# Revision: 0
# Processed by: cddbd v1.5.2PL0 Copyright (c) Steve Scherf et al.
# Submitted via: CDex 1.70beta2
#
DISCID=a20d1d0b
DTITLE=Aldo Menti and Alberto Castellani - Hymn for the World
DYEAR=1997
DGENRE=New Age
TTITLE0=Hymn for the world
TTITLE1=Save the earth
TTITLE2=Amazon river
TTITLE3=Dream's land
TTITLE4=Power of nature
TTITLE5=Antartic lab
TTITLE6=The sunrise on a winter scenery
TTITLE7=All the world's people
TTITLE8=Earth is crying
TTITLE9=Peace March
TTITLE10=Kaleidoscope
EXTD=YEAR: 1997
EXTT0=
EXTT1=
EXTT2=
EXTT3=
EXTT4=
EXTT5=
EXTT6=
EXTT7=
EXTT8=
EXTT9=
EXTT10=
PLAYORDER=
